<svg viewBox="0 0 100 100" xmlns="http://www.w3.org/2000/svg"><style>:root {
            color-scheme: light dark;

            --icon: rgba(60, 60, 67, 0.18);
        }

        @media (prefers-color-scheme: dark) {
            :root {
                --icon: rgba(235, 235, 245, 0.16);
            }
        }
    </style><g fill="none" fill-rule="evenodd"><path fill="var(--genericJoeColor)" d="M0 0h100v100H0z"></path><path fill="var(--icon)" d="M34.098 73.66c3.256 0 8.153-2.404 8.153-8.873v-21c0-1.146.202-1.393 1.235-1.596L61.5 38.485c1.146-.247 1.595.045 1.595 1.078l.157 14.083c0 1.146-.584 1.865-1.64 2.09l-3.346.74c-4.493.966-6.694 3.078-6.694 6.447 0 3.347 2.718 5.795 6.424 5.795 3.257 0 8.064-2.291 8.064-8.738V28.76c0-2.112-.966-2.763-3.392-2.291l-21.27 4.402c-1.483.292-2.27 1.1-2.27 2.381l.136 25.358c0 1.056-.494 1.775-1.438 1.954l-3.504.72c-4.447.943-6.558 3.166-6.558 6.603 0 3.391 2.628 5.772 6.334 5.772Z" fill-rule="nonzero"></path></g></svg>